<mxfile host="app.diagrams.net" agent="Mozilla/5.0 (Windows NT 10.0; Win64; x64) AppleWebKit/537.36 (KHTML, like Gecko) Chrome/128.0.0.0 Safari/537.36" version="24.7.7">
  <diagram name="Page-1" id="c7c9wpjRmfpQ56Q2JIvj">
    <mxGraphModel dx="1050" dy="1683" grid="1" gridSize="10" guides="1" tooltips="1" connect="1" arrows="1" fold="1" page="1" pageScale="1" pageWidth="850" pageHeight="1100" math="0" shadow="0">
      <root>
        <mxCell id="0" />
        <mxCell id="1" parent="0" />
        <mxCell id="iymDI9OT2GfsB_ASsETB-10" style="edgeStyle=orthogonalEdgeStyle;rounded=0;orthogonalLoop=1;jettySize=auto;html=1;entryX=0;entryY=0.5;entryDx=0;entryDy=0;" edge="1" parent="1" source="iymDI9OT2GfsB_ASsETB-2" target="iymDI9OT2GfsB_ASsETB-4">
          <mxGeometry relative="1" as="geometry" />
        </mxCell>
        <mxCell id="iymDI9OT2GfsB_ASsETB-11" style="edgeStyle=orthogonalEdgeStyle;rounded=0;orthogonalLoop=1;jettySize=auto;html=1;" edge="1" parent="1" source="iymDI9OT2GfsB_ASsETB-2" target="iymDI9OT2GfsB_ASsETB-7">
          <mxGeometry relative="1" as="geometry" />
        </mxCell>
        <mxCell id="iymDI9OT2GfsB_ASsETB-12" style="edgeStyle=orthogonalEdgeStyle;rounded=0;orthogonalLoop=1;jettySize=auto;html=1;entryX=0;entryY=0.5;entryDx=0;entryDy=0;" edge="1" parent="1" source="iymDI9OT2GfsB_ASsETB-2" target="iymDI9OT2GfsB_ASsETB-8">
          <mxGeometry relative="1" as="geometry" />
        </mxCell>
        <mxCell id="iymDI9OT2GfsB_ASsETB-13" style="edgeStyle=orthogonalEdgeStyle;rounded=0;orthogonalLoop=1;jettySize=auto;html=1;entryX=0;entryY=0.5;entryDx=0;entryDy=0;" edge="1" parent="1" source="iymDI9OT2GfsB_ASsETB-2" target="iymDI9OT2GfsB_ASsETB-9">
          <mxGeometry relative="1" as="geometry" />
        </mxCell>
        <mxCell id="iymDI9OT2GfsB_ASsETB-2" value="" style="rounded=0;whiteSpace=wrap;html=1;fillColor=#dae8fc;gradientColor=#7ea6e0;strokeColor=#6c8ebf;" vertex="1" parent="1">
          <mxGeometry x="40" y="160" width="230" height="110" as="geometry" />
        </mxCell>
        <mxCell id="iymDI9OT2GfsB_ASsETB-3" value="&lt;b&gt;Ansible Server&lt;/b&gt;" style="text;html=1;align=center;verticalAlign=middle;resizable=0;points=[];autosize=1;strokeColor=none;fillColor=none;" vertex="1" parent="1">
          <mxGeometry x="100" y="200" width="110" height="30" as="geometry" />
        </mxCell>
        <mxCell id="iymDI9OT2GfsB_ASsETB-4" value="&lt;b&gt;NODE-1&lt;/b&gt;" style="rounded=1;whiteSpace=wrap;html=1;fillColor=#d5e8d4;gradientColor=#97d077;strokeColor=#82b366;" vertex="1" parent="1">
          <mxGeometry x="470" y="40" width="120" height="60" as="geometry" />
        </mxCell>
        <mxCell id="iymDI9OT2GfsB_ASsETB-5" value="&lt;b&gt;node/box&lt;/b&gt;" style="text;html=1;align=center;verticalAlign=middle;resizable=0;points=[];autosize=1;strokeColor=none;fillColor=none;" vertex="1" parent="1">
          <mxGeometry x="490" width="80" height="30" as="geometry" />
        </mxCell>
        <mxCell id="iymDI9OT2GfsB_ASsETB-6" value="&lt;b&gt;Master&lt;/b&gt;" style="text;html=1;align=center;verticalAlign=middle;resizable=0;points=[];autosize=1;strokeColor=none;fillColor=none;" vertex="1" parent="1">
          <mxGeometry x="120" y="270" width="60" height="30" as="geometry" />
        </mxCell>
        <mxCell id="iymDI9OT2GfsB_ASsETB-7" value="&lt;b&gt;NODE-2&lt;/b&gt;" style="rounded=1;whiteSpace=wrap;html=1;fillColor=#f8cecc;gradientColor=#ea6b66;strokeColor=#b85450;" vertex="1" parent="1">
          <mxGeometry x="470" y="160" width="120" height="60" as="geometry" />
        </mxCell>
        <mxCell id="iymDI9OT2GfsB_ASsETB-8" value="&lt;b&gt;NODE-3&lt;/b&gt;" style="rounded=1;whiteSpace=wrap;html=1;fillColor=#fff2cc;gradientColor=#ffd966;strokeColor=#d6b656;" vertex="1" parent="1">
          <mxGeometry x="470" y="280" width="120" height="60" as="geometry" />
        </mxCell>
        <mxCell id="iymDI9OT2GfsB_ASsETB-9" value="&lt;b&gt;NODE-4&lt;/b&gt;" style="rounded=1;whiteSpace=wrap;html=1;fillColor=#ffcd28;gradientColor=#ffa500;strokeColor=#d79b00;" vertex="1" parent="1">
          <mxGeometry x="470" y="390" width="120" height="60" as="geometry" />
        </mxCell>
        <mxCell id="iymDI9OT2GfsB_ASsETB-14" value="&lt;b&gt;SSH&lt;/b&gt;" style="text;html=1;align=center;verticalAlign=middle;resizable=0;points=[];autosize=1;strokeColor=none;fillColor=none;" vertex="1" parent="1">
          <mxGeometry x="300" y="180" width="50" height="30" as="geometry" />
        </mxCell>
        <mxCell id="iymDI9OT2GfsB_ASsETB-15" value="" style="rounded=0;whiteSpace=wrap;html=1;fillColor=#d5e8d4;gradientColor=#97d077;strokeColor=#82b366;" vertex="1" parent="1">
          <mxGeometry x="30" y="-200" width="240" height="130" as="geometry" />
        </mxCell>
        <mxCell id="iymDI9OT2GfsB_ASsETB-16" value="&lt;b&gt;CM Server&lt;/b&gt;" style="text;html=1;align=center;verticalAlign=middle;resizable=0;points=[];autosize=1;strokeColor=none;fillColor=none;" vertex="1" parent="1">
          <mxGeometry x="115" y="-150" width="80" height="30" as="geometry" />
        </mxCell>
        <mxCell id="iymDI9OT2GfsB_ASsETB-19" style="edgeStyle=orthogonalEdgeStyle;rounded=0;orthogonalLoop=1;jettySize=auto;html=1;entryX=1;entryY=0.5;entryDx=0;entryDy=0;" edge="1" parent="1" source="iymDI9OT2GfsB_ASsETB-17" target="iymDI9OT2GfsB_ASsETB-15">
          <mxGeometry relative="1" as="geometry" />
        </mxCell>
        <mxCell id="iymDI9OT2GfsB_ASsETB-17" value="&lt;b&gt;NODE-1&lt;/b&gt;" style="rounded=0;whiteSpace=wrap;html=1;fillColor=#e6d0de;gradientColor=#d5739d;strokeColor=#996185;" vertex="1" parent="1">
          <mxGeometry x="450" y="-220" width="120" height="60" as="geometry" />
        </mxCell>
        <mxCell id="iymDI9OT2GfsB_ASsETB-20" style="edgeStyle=orthogonalEdgeStyle;rounded=0;orthogonalLoop=1;jettySize=auto;html=1;entryX=1;entryY=0.5;entryDx=0;entryDy=0;" edge="1" parent="1" source="iymDI9OT2GfsB_ASsETB-18" target="iymDI9OT2GfsB_ASsETB-15">
          <mxGeometry relative="1" as="geometry" />
        </mxCell>
        <mxCell id="iymDI9OT2GfsB_ASsETB-18" value="&lt;b&gt;NODE-2&lt;/b&gt;" style="rounded=0;whiteSpace=wrap;html=1;fillColor=#e6d0de;gradientColor=#d5739d;strokeColor=#996185;" vertex="1" parent="1">
          <mxGeometry x="450" y="-100" width="120" height="60" as="geometry" />
        </mxCell>
        <mxCell id="iymDI9OT2GfsB_ASsETB-21" value="&lt;b&gt;every 30min, connect to the server and check for any new config&lt;/b&gt;" style="text;html=1;align=center;verticalAlign=middle;resizable=0;points=[];autosize=1;strokeColor=none;fillColor=none;" vertex="1" parent="1">
          <mxGeometry x="380" y="-160" width="390" height="30" as="geometry" />
        </mxCell>
        <mxCell id="iymDI9OT2GfsB_ASsETB-23" value="&lt;b&gt;agents&lt;/b&gt;" style="ellipse;whiteSpace=wrap;html=1;" vertex="1" parent="1">
          <mxGeometry x="450" y="-220" width="40" height="30" as="geometry" />
        </mxCell>
        <mxCell id="iymDI9OT2GfsB_ASsETB-24" value="&lt;b&gt;agents&lt;/b&gt;" style="ellipse;whiteSpace=wrap;html=1;" vertex="1" parent="1">
          <mxGeometry x="450" y="-100" width="40" height="30" as="geometry" />
        </mxCell>
      </root>
    </mxGraphModel>
  </diagram>
</mxfile>
